# xmcd
#
# Track frame offsets:
#	150
#	20630
#	42307
#	69142
#	80890
#	98376
#	123849
#	182329
#	214036
#	257213
#
# Disc length: 3834 seconds
#
# Revision: 1
# Processed by: cddbd v1.5.2PL0 Copyright (c) Steve Scherf et al.
# Submitted via: audiograbber 1.83.01
#
DISCID=7c0ef80a
DTITLE=Dixon, Willy - Reed, Jimmy - Blues Legends Of The Sixties - Big Boss Men 
DTITLE=(live
DYEAR=2001
DGENRE=Blues
TTITLE0=Dixon, Willy - Sitting And Crying The Blues
TTITLE1=Dixon, Willy - Spoonful
TTITLE2=Dixon, Willy - I Just Want To Make Love To You
TTITLE3=Dixon, Willy - Chicago Here I Come
TTITLE4=Dixon, Willy - Tore Down
TTITLE5=Dixon, Willy - Roach Stew
TTITLE6=Reed, Jimmy - Big Boss Man
TTITLE7=Reed, Jimmy - Stop Light
TTITLE8=Reed, Jimmy - You Don´t Have To Go (Down The Road I Go)
TTITLE9=Reed, Jimmy - Bright Lights Big City
EXTD=2 live concerts dedicated to 2 blues legends
EXTT0=
EXTT1=
EXTT2=
EXTT3=
EXTT4=
EXTT5=
EXTT6=
EXTT7=
EXTT8=
EXTT9=
PLAYORDER=
